{"glyphs":{"0":{"ha":833,"x_min":0,"x_max":0,"o":"m 765 486 b 417 997 765 668 757 997 b 68 486 79 997 68 674 b 417 -25 68 304 88 -25 b 765 486 746 -25 765 304 z m 417 758 b 526 486 525 758 526 626 b 417 214 526 346 519 214 b 307 486 308 214 307 346 b 417 758 307 626 314 758 z "},"1":{"ha":528,"x_min":0,"x_max":0,"o":"m 385 972 b 426 931 413 972 426 958 l 426 42 b 385 0 426 15 413 0 l 231 0 b 189 42 204 0 189 15 l 189 653 b 147 694 189 681 175 694 l 88 694 b 46 736 61 694 46 710 l 46 811 b 74 861 46 835 54 850 l 251 968 b 269 972 257 971 263 972 z "},"2":{"ha":792,"x_min":0,"x_max":0,"o":"m 331 239 b 318 254 319 239 315 244 b 731 710 367 394 731 438 b 410 997 732 751 721 997 b 63 711 124 997 71 811 b 99 665 61 686 74 671 l 257 631 b 303 665 285 625 299 638 b 410 758 313 722 344 758 b 478 681 464 758 486 722 b 47 161 456 571 47 481 l 47 42 b 89 0 47 15 63 0 l 681 0 b 722 42 708 0 722 14 l 722 197 b 681 239 722 225 708 239 z "},"3":{"ha":819,"x_min":0,"x_max":0,"o":"m 271 631 b 317 665 299 625 313 638 b 424 758 326 722 358 758 b 493 647 479 758 524 704 b 357 575 472 608 424 583 b 315 533 329 572 315 560 l 315 439 b 357 397 315 413 329 400 b 493 325 424 389 472 364 b 424 214 522 268 479 214 b 317 307 358 214 326 250 b 271 342 313 335 299 347 l 113 307 b 76 261 88 301 75 286 b 424 -25 85 161 138 -25 b 747 279 647 -25 754 118 b 649 479 742 389 690 454 b 649 493 639 483 639 489 b 747 693 690 518 742 583 b 424 997 754 854 647 997 b 76 711 138 997 85 811 b 113 665 75 686 88 671 z "},"4":{"ha":833,"x_min":0,"x_max":0,"o":"m 800 531 b 758 572 800 558 786 572 l 742 572 b 700 614 715 572 700 588 l 700 958 b 658 1000 700 986 686 1000 l 503 1000 b 461 958 476 1000 461 986 l 461 614 b 419 572 461 588 447 572 l 283 572 b 272 588 272 572 269 578 l 389 821 b 354 868 403 849 385 868 l 201 868 b 154 835 176 868 165 857 l 35 597 b 26 569 31 582 26 571 l 26 375 b 68 333 26 349 42 333 l 419 333 b 461 292 447 333 461 319 l 461 42 b 503 0 461 15 476 0 l 658 0 b 700 42 686 0 700 15 l 700 292 b 742 333 700 319 715 333 l 758 333 b 800 375 786 333 800 349 z "},"5":{"ha":819,"x_min":0,"x_max":0,"o":"m 736 931 b 694 972 736 958 722 972 l 135 972 b 93 931 108 972 93 957 l 93 461 b 135 419 93 435 108 419 l 332 419 b 504 313 439 419 493 388 b 417 214 511 267 483 214 b 310 307 351 214 319 250 b 264 342 306 335 292 347 l 106 307 b 69 261 81 301 68 286 b 417 -25 78 161 131 -25 b 763 313 674 -25 763 167 b 417 650 763 443 674 650 l 374 650 b 332 692 347 650 332 665 l 332 719 b 346 733 332 729 338 733 l 694 733 b 736 775 722 733 736 747 z "},"6":{"ha":764,"x_min":0,"x_max":0,"o":"m 401 972 b 350 956 382 972 367 968 b 33 313 135 793 33 489 b 382 -25 33 131 150 -25 b 731 313 614 -25 731 131 b 386 613 731 488 603 633 b 369 628 372 611 365 617 b 625 926 408 722 543 854 b 610 972 654 951 649 972 z m 382 392 b 492 288 449 392 492 358 b 382 183 492 217 443 183 b 272 288 315 183 272 217 b 382 392 272 358 321 392 z "},"7":{"ha":792,"x_min":0,"x_max":0,"o":"m 349 0 b 397 32 372 0 388 10 l 796 922 b 768 972 808 951 801 972 l 71 972 b 29 931 44 972 29 958 l 29 775 b 71 733 29 749 44 733 l 413 733 b 422 717 424 733 426 726 l 125 49 b 156 0 111 19 125 0 z "},"8":{"ha":833,"x_min":0,"x_max":0,"o":"m 672 536 b 733 729 713 590 733 658 b 417 997 733 890 628 997 b 100 729 194 997 100 890 b 160 539 100 658 119 592 b 68 318 97 486 68 410 b 417 -22 68 139 185 -22 b 765 318 649 -22 765 139 b 672 536 765 408 735 483 z m 317 704 b 417 800 317 769 361 800 b 517 704 478 800 517 769 b 417 613 517 643 472 613 b 317 704 356 613 317 643 z m 417 217 b 307 318 350 217 307 250 b 417 419 307 389 356 419 b 526 318 483 419 526 389 b 417 217 526 250 478 217 z "},"9":{"ha":778,"x_min":0,"x_max":0,"o":"m 381 0 b 431 24 401 0 417 7 b 738 660 592 219 738 485 b 389 997 738 842 621 997 b 40 660 157 997 40 842 b 367 363 40 483 150 371 b 382 346 379 363 386 356 b 156 50 342 260 233 129 b 176 0 129 24 139 0 z m 389 581 b 279 685 322 581 279 614 b 389 789 279 756 328 789 b 499 685 456 789 499 756 b 389 581 499 614 450 581 z "},"A":{"ha":806,"x_min":0,"x_max":0,"o":"m 743 47 b 701 0 743 17 729 0 l 546 0 b 504 42 519 0 504 14 l 504 163 b 463 204 504 190 490 204 l 343 204 b 301 163 317 204 301 190 l 301 42 b 260 0 301 14 288 0 l 104 0 b 63 47 78 0 63 17 l 63 636 b 403 997 63 811 90 997 b 743 636 715 997 743 811 z m 504 636 b 403 736 504 703 494 736 b 301 636 311 736 301 703 l 301 485 b 343 443 301 458 317 443 l 463 443 b 504 486 490 444 504 458 z "},"Á":{"ha":806,"x_min":0,"x_max":0,"o":"m 407 1156 b 356 1138 392 1143 376 1138 l 264 1138 b 240 1189 226 1138 217 1161 l 351 1313 b 403 1335 367 1328 381 1335 l 549 1335 b 567 1283 589 1335 597 1308 z m 743 47 b 701 0 743 17 729 0 l 546 0 b 504 42 519 0 504 14 l 504 163 b 463 204 504 190 490 204 l 343 204 b 301 163 317 204 301 190 l 301 42 b 260 0 301 14 288 0 l 104 0 b 63 47 78 0 63 17 l 63 636 b 403 997 63 811 90 997 b 743 636 715 997 743 811 z m 504 636 b 403 736 504 703 494 736 b 301 636 311 736 301 703 l 301 485 b 343 443 301 458 317 443 l 463 443 b 504 486 490 444 504 458 z "},"Â":{"ha":806,"x_min":0,"x_max":0,"o":"m 435 1360 b 376 1360 413 1382 396 1379 l 181 1163 b 181 1101 161 1143 160 1124 l 219 1064 b 276 1064 238 1046 260 1046 l 396 1183 b 413 1183 403 1190 407 1189 l 536 1061 b 594 1061 556 1042 576 1043 l 633 1099 b 633 1160 654 1121 654 1140 z m 743 47 b 701 0 743 17 729 0 l 546 0 b 504 42 519 0 504 14 l 504 163 b 463 204 504 190 490 204 l 343 204 b 301 163 317 204 301 190 l 301 42 b 260 0 301 14 288 0 l 104 0 b 63 47 78 0 63 17 l 63 636 b 403 997 63 811 90 997 b 743 636 715 997 743 811 z m 504 636 b 403 736 504 703 494 736 b 301 636 311 736 301 703 l 301 485 b 343 443 301 458 317 443 l 463 443 b 504 486 490 444 504 458 z "},"Ä":{"ha":806,"x_min":0,"x_max":0,"o":"m 261 1088 b 340 1167 304 1088 340 1124 b 261 1246 340 1210 304 1246 b 182 1167 218 1246 182 1210 b 261 1088 182 1124 218 1088 z m 553 1088 b 632 1167 596 1088 632 1124 b 553 1246 632 1210 596 1246 b 474 1167 510 1246 474 1210 b 553 1088 474 1124 510 1088 z m 743 47 b 701 0 743 17 729 0 l 546 0 b 504 42 519 0 504 14 l 504 163 b 463 204 504 190 490 204 l 343 204 b 301 163 317 204 301 190 l 301 42 b 260 0 301 14 288 0 l 104 0 b 63 47 78 0 63 17 l 63 636 b 403 997 63 811 90 997 b 743 636 715 997 743 811 z m 504 636 b 403 736 504 703 494 736 b 301 636 311 736 301 703 l 301 485 b 343 443 301 458 317 443 l 463 443 b 504 486 490 444 504 458 z "},"À":{"ha":806,"x_min":0,"x_max":0,"o":"m 411 1335 b 463 1313 433 1335 447 1328 l 574 1189 b 550 1138 597 1161 588 1138 l 458 1138 b 407 1156 438 1138 422 1143 l 247 1283 b 265 1335 217 1308 225 1335 z m 743 47 b 701 0 743 17 729 0 l 546 0 b 504 42 519 0 504 14 l 504 163 b 463 204 504 190 490 204 l 343 204 b 301 163 317 204 301 190 l 301 42 b 260 0 301 14 288 0 l 104 0 b 63 47 78 0 63 17 l 63 636 b 403 997 63 811 90 997 b 743 636 715 997 743 811 z m 504 636 b 403 736 504 703 494 736 b 301 636 311 736 301 703 l 301 485 b 343 443 301 458 317 443 l 463 443 b 504 486 490 444 504 458 z "},"Ã":{"ha":806,"x_min":0,"x_max":0,"o":"m 215 1221 b 256 1208 229 1228 250 1219 b 681 1133 313 1104 574 1350 b 663 1093 690 1114 681 1100 l 599 1072 b 558 1085 585 1068 565 1072 b 133 1160 501 1189 240 943 b 151 1200 124 1179 131 1193 z m 743 47 b 701 0 743 17 729 0 l 546 0 b 504 42 519 0 504 14 l 504 163 b 463 204 504 190 490 204 l 343 204 b 301 163 317 204 301 190 l 301 42 b 260 0 301 14 288 0 l 104 0 b 63 47 78 0 63 17 l 63 636 b 403 997 63 811 90 997 b 743 636 715 997 743 811 z m 504 636 b 403 736 504 703 494 736 b 301 636 311 736 301 703 l 301 485 b 343 443 301 458 317 443 l 463 443 b 504 486 490 444 504 458 z "},"B":{"ha":814,"x_min":0,"x_max":0,"o":"m 111 972 b 69 929 83 971 69 957 l 69 42 b 111 0 69 15 85 0 l 454 0 b 792 256 715 0 792 83 b 693 438 792 342 750 411 b 764 639 750 500 764 592 b 403 972 764 867 664 972 z m 350 544 b 308 586 324 544 308 558 l 308 692 b 350 733 308 719 324 733 l 425 733 b 525 639 492 733 525 725 b 425 544 525 553 492 544 z m 349 197 b 307 239 322 197 307 211 l 307 303 b 349 344 307 331 322 344 l 439 344 b 536 269 506 344 536 335 b 436 197 536 204 503 197 z "},"C":{"ha":778,"x_min":0,"x_max":0,"o":"m 56 313 b 404 -25 56 221 75 -25 b 751 279 700 -25 746 174 b 721 319 753 300 740 315 l 564 354 b 510 314 536 361 514 343 b 404 214 501 250 481 214 b 294 386 301 214 294 279 l 294 586 b 404 758 294 693 301 758 b 511 661 479 758 504 722 b 567 618 515 632 538 613 l 721 653 b 751 692 740 657 753 672 b 404 997 746 799 700 997 b 56 660 75 997 56 751 z "},"D":{"ha":824,"x_min":0,"x_max":0,"o":"m 111 972 b 69 929 83 971 69 957 l 69 42 b 111 0 69 15 85 0 l 421 0 b 768 335 682 0 768 107 l 768 639 b 421 972 768 867 682 972 z m 350 239 b 308 281 324 239 308 254 l 308 692 b 350 733 308 719 324 733 l 425 733 b 525 639 492 733 525 725 b 525 333 525 638 525 335 b 425 239 525 250 492 239 z "},"E":{"ha":774,"x_min":0,"x_max":0,"o":"m 694 972 b 736 931 722 972 736 958 l 736 775 b 694 733 736 749 722 733 l 358 733 b 317 692 332 733 317 719 l 317 647 b 358 606 317 621 332 606 l 574 606 b 615 564 601 606 615 592 l 615 408 b 574 367 615 382 601 367 l 358 367 b 317 325 332 367 317 353 l 317 281 b 358 239 317 254 332 239 l 694 239 b 736 197 722 239 736 225 l 736 42 b 694 0 736 14 722 0 l 111 0 b 69 42 85 0 69 15 l 69 931 b 111 972 69 958 85 972 z "},"É":{"ha":774,"x_min":0,"x_max":0,"o":"m 417 1156 b 365 1138 401 1143 386 1138 l 274 1138 b 250 1189 236 1138 226 1161 l 361 1313 b 413 1335 376 1328 390 1335 l 558 1335 b 576 1283 599 1335 607 1308 z m 694 972 b 736 931 722 972 736 958 l 736 775 b 694 733 736 749 722 733 l 358 733 b 317 692 332 733 317 719 l 317 647 b 358 606 317 621 332 606 l 574 606 b 615 564 601 606 615 592 l 615 408 b 574 367 615 382 601 367 l 358 367 b 317 325 332 367 317 353 l 317 281 b 358 239 317 254 332 239 l 694 239 b 736 197 722 239 736 225 l 736 42 b 694 0 736 14 722 0 l 111 0 b 69 42 85 0 69 15 l 69 931 b 111 972 69 958 85 972 z "},"Ê":{"ha":774,"x_min":0,"x_max":0,"o":"m 444 1360 b 386 1360 422 1382 406 1379 l 190 1163 b 190 1101 171 1143 169 1124 l 229 1064 b 286 1064 247 1046 269 1046 l 406 1183 b 422 1183 413 1190 417 1189 l 546 1061 b 604 1061 565 1042 586 1043 l 643 1099 b 643 1160 664 1121 664 1140 z m 694 972 b 736 931 722 972 736 958 l 736 775 b 694 733 736 749 722 733 l 358 733 b 317 692 332 733 317 719 l 317 647 b 358 606 317 621 332 606 l 574 606 b 615 564 601 606 615 592 l 615 408 b 574 367 615 382 601 367 l 358 367 b 317 325 332 367 317 353 l 317 281 b 358 239 317 254 332 239 l 694 239 b 736 197 722 239 736 225 l 736 42 b 694 0 736 14 722 0 l 111 0 b 69 42 85 0 69 15 l 69 931 b 111 972 69 958 85 972 z "},"Ë":{"ha":774,"x_min":0,"x_max":0,"o":"m 271 1088 b 350 1167 314 1088 350 1124 b 271 1246 350 1210 314 1246 b 192 1167 228 1246 192 1210 b 271 1088 192 1124 228 1088 z m 563 1088 b 642 1167 606 1088 642 1124 b 563 1246 642 1210 606 1246 b 483 1167 519 1246 483 1210 b 563 1088 483 1124 519 1088 z m 694 972 b 736 931 722 972 736 958 l 736 775 b 694 733 736 749 722 733 l 358 733 b 317 692 332 733 317 719 l 317 647 b 358 606 317 621 332 606 l 574 606 b 615 564 601 606 615 592 l 615 408 b 574 367 615 382 601 367 l 358 367 b 317 325 332 367 317 353 l 317 281 b 358 239 317 254 332 239 l 694 239 b 736 197 722 239 736 225 l 736 42 b 694 0 736 14 722 0 l 111 0 b 69 42 85 0 69 15 l 69 931 b 111 972 69 958 85 972 z "},"È":{"ha":774,"x_min":0,"x_max":0,"o":"m 421 1335 b 472 1313 443 1335 457 1328 l 583 1189 b 560 1138 607 1161 597 1138 l 468 1138 b 417 1156 447 1138 432 1143 l 257 1283 b 275 1335 226 1308 235 1335 z m 694 972 b 736 931 722 972 736 958 l 736 775 b 694 733 736 749 722 733 l 358 733 b 317 692 332 733 317 719 l 317 647 b 358 606 317 621 332 606 l 574 606 b 615 564 601 606 615 592 l 615 408 b 574 367 615 382 601 367 l 358 367 b 317 325 332 367 317 353 l 317 281 b 358 239 317 254 332 239 l 694 239 b 736 197 722 239 736 225 l 736 42 b 694 0 736 14 722 0 l 111 0 b 69 42 85 0 69 15 l 69 931 b 111 972 69 958 85 972 z "},"F":{"ha":764,"x_min":0,"x_max":0,"o":"m 708 972 b 750 931 736 972 750 958 l 750 775 b 708 733 750 749 736 733 l 358 733 b 317 692 332 733 317 719 l 317 647 b 358 606 317 621 332 606 l 588 606 b 629 564 615 606 629 592 l 629 408 b 588 367 629 382 615 367 l 358 367 b 317 325 332 367 317 353 l 317 42 b 275 0 317 15 303 0 l 111 0 b 69 42 85 0 69 15 l 69 931 b 111 972 69 958 85 972 z "},"G":{"ha":806,"x_min":0,"x_max":0,"o":"m 56 313 b 404 -25 56 221 75 -25 b 753 313 733 -25 753 221 l 753 500 b 711 542 753 528 739 542 l 433 542 b 392 500 407 542 392 528 l 392 389 b 433 347 392 363 407 347 l 514 347 b 404 214 514 279 507 214 b 294 386 301 214 294 279 l 294 586 b 404 758 294 693 301 758 b 513 653 483 758 507 719 b 558 617 515 624 531 611 l 715 651 b 751 697 740 657 753 672 b 404 997 744 806 696 997 b 56 660 75 997 56 751 z "},"H":{"ha":833,"x_min":0,"x_max":0,"o":"m 267 972 b 308 931 293 972 308 957 l 308 583 b 350 542 308 557 324 542 l 483 542 b 525 583 511 542 525 557 l 525 931 b 567 972 525 957 540 972 l 722 972 b 764 931 750 972 764 958 l 764 42 b 722 0 764 15 750 0 l 567 0 b 525 42 540 0 525 15 l 525 261 b 483 303 525 289 511 303 l 350 303 b 308 261 324 303 308 289 l 308 42 b 267 0 308 15 294 0 l 111 0 b 69 42 85 0 69 15 l 69 931 b 111 972 69 958 83 972 z "},"I":{"ha":375,"x_min":0,"x_max":0,"o":"m 264 972 b 306 931 292 972 306 958 l 306 42 b 264 0 306 15 292 0 l 111 0 b 69 42 85 0 69 15 l 69 931 b 111 972 69 958 85 972 z "},"Í":{"ha":375,"x_min":0,"x_max":0,"o":"m 188 1156 b 136 1138 172 1143 157 1138 l 44 1138 b 21 1189 7 1138 -3 1161 l 132 1313 b 183 1335 147 1328 161 1335 l 329 1335 b 347 1283 369 1335 378 1308 z m 264 972 b 306 931 292 972 306 958 l 306 42 b 264 0 306 15 292 0 l 111 0 b 69 42 85 0 69 15 l 69 931 b 111 972 69 958 85 972 z "},"Î":{"ha":375,"x_min":0,"x_max":0,"o":"m 215 1360 b 157 1360 193 1382 176 1379 l -39 1163 b -39 1101 -58 1143 -60 1124 l 0 1064 b 57 1064 18 1046 40 1046 l 176 1183 b 193 1183 183 1190 188 1189 l 317 1061 b 375 1061 336 1042 357 1043 l 414 1099 b 414 1160 435 1121 435 1140 z m 264 972 b 306 931 292 972 306 958 l 306 42 b 264 0 306 15 292 0 l 111 0 b 69 42 85 0 69 15 l 69 931 b 111 972 69 958 85 972 z "},"Ï":{"ha":375,"x_min":0,"x_max":0,"o":"m 42 1088 b 121 1167 85 1088 121 1124 b 42 1246 121 1210 85 1246 b -37 1167 -1 1246 -37 1210 b 42 1088 -37 1124 -1 1088 z m 333 1088 b 413 1167 376 1088 413 1124 b 333 1246 413 1210 376 1246 b 254 1167 290 1246 254 1210 b 333 1088 254 1124 290 1088 z m 264 972 b 306 931 292 972 306 958 l 306 42 b 264 0 306 15 292 0 l 111 0 b 69 42 85 0 69 15 l 69 931 b 111 972 69 958 85 972 z "},"Ì":{"ha":375,"x_min":0,"x_max":0,"o":"m 192 1335 b 243 1313 214 1335 228 1328 l 354 1189 b 331 1138 378 1161 368 1138 l 239 1138 b 188 1156 218 1138 203 1143 l 28 1283 b 46 1335 -3 1308 6 1335 z m 264 972 b 306 931 292 972 306 958 l 306 42 b 264 0 306 15 292 0 l 111 0 b 69 42 85 0 69 15 l 69 931 b 111 972 69 958 85 972 z "},"J":{"ha":772,"x_min":0,"x_max":0,"o":"m 514 972 b 471 929 489 972 471 954 l 471 386 b 361 214 471 279 464 214 b 254 311 286 214 261 250 b 199 354 250 340 228 360 l 44 319 b 14 281 25 315 13 300 b 361 -25 19 174 65 -25 b 710 313 690 -25 710 221 l 710 929 b 667 972 710 954 692 972 z "},"K":{"ha":865,"x_min":0,"x_max":0,"o":"m 547 515 b 547 535 542 522 543 528 l 828 921 b 801 972 847 950 836 972 l 596 972 b 546 946 574 972 558 964 l 328 646 b 311 651 321 635 311 638 l 311 931 b 269 972 311 958 297 972 l 111 972 b 69 931 85 972 69 958 l 69 42 b 111 0 69 15 85 0 l 269 0 b 311 42 297 0 311 15 l 311 196 b 317 214 311 203 313 208 l 374 292 b 393 292 379 300 388 300 l 565 28 b 615 0 578 8 593 0 l 824 0 b 850 50 857 0 869 22 z "},"L":{"ha":718,"x_min":0,"x_max":0,"o":"m 267 972 b 308 931 294 972 308 958 l 308 281 b 350 239 308 254 324 239 l 660 239 b 701 197 688 239 701 225 l 701 42 b 660 0 701 14 688 0 l 111 0 b 69 42 85 0 69 15 l 69 931 b 111 972 69 958 85 972 z "},"M":{"ha":1100,"x_min":0,"x_max":0,"o":"m 399 972 b 443 935 424 972 438 958 l 542 531 b 558 531 544 517 556 517 l 657 935 b 701 972 663 958 676 972 l 989 972 b 1031 931 1017 972 1031 958 l 1031 42 b 989 0 1031 15 1017 0 l 833 0 b 792 42 807 0 792 15 l 792 589 b 776 590 792 599 779 600 l 642 36 b 596 0 636 13 621 0 l 504 0 b 458 36 479 0 464 13 l 324 590 b 308 589 321 600 308 599 l 308 42 b 267 0 308 15 294 0 l 111 0 b 69 42 83 0 69 15 l 69 931 b 111 972 69 958 83 972 z "},"N":{"ha":878,"x_min":0,"x_max":0,"o":"m 315 972 b 364 940 339 972 354 963 l 553 478 b 569 482 558 465 569 468 l 569 931 b 611 972 569 958 585 972 l 767 972 b 808 931 794 972 808 958 l 808 42 b 767 0 808 15 794 0 l 563 0 b 514 32 539 0 524 10 l 325 494 b 308 490 319 507 308 504 l 308 42 b 267 0 308 15 294 0 l 111 0 b 69 42 85 0 69 15 l 69 931 b 111 972 69 958 85 972 z "},"Ñ":{"ha":878,"x_min":0,"x_max":0,"o":"m 261 1221 b 301 1208 275 1228 296 1219 b 726 1133 358 1104 619 1350 b 708 1093 736 1114 726 1100 l 644 1072 b 604 1085 631 1068 611 1072 b 179 1160 547 1189 286 943 b 197 1200 169 1179 176 1193 z m 315 972 b 364 940 339 972 354 963 l 553 478 b 569 482 558 465 569 468 l 569 931 b 611 972 569 958 585 972 l 767 972 b 808 931 794 972 808 958 l 808 42 b 767 0 808 15 794 0 l 563 0 b 514 32 539 0 524 10 l 325 494 b 308 490 319 507 308 504 l 308 42 b 267 0 308 15 294 0 l 111 0 b 69 42 85 0 69 15 l 69 931 b 111 972 69 958 85 972 z "},"O":{"ha":808,"x_min":0,"x_max":0,"o":"m 753 660 b 404 997 753 751 733 997 b 56 660 75 997 56 751 l 56 313 b 404 -25 56 221 75 -25 b 753 313 733 -25 753 221 z m 514 386 b 404 214 514 279 507 214 b 294 386 301 214 294 279 l 294 586 b 404 758 294 693 301 758 b 514 586 507 758 514 693 z "},"Ó":{"ha":808,"x_min":0,"x_max":0,"o":"m 404 1156 b 353 1138 389 1143 374 1138 l 261 1138 b 238 1189 224 1138 214 1161 l 349 1313 b 400 1335 364 1328 378 1335 l 546 1335 b 564 1283 586 1335 594 1308 z m 753 660 b 404 997 753 751 733 997 b 56 660 75 997 56 751 l 56 313 b 404 -25 56 221 75 -25 b 753 313 733 -25 753 221 z m 514 386 b 404 214 514 279 507 214 b 294 386 301 214 294 279 l 294 586 b 404 758 294 693 301 758 b 514 586 507 758 514 693 z "},"Ô":{"ha":808,"x_min":0,"x_max":0,"o":"m 432 1360 b 374 1360 410 1382 393 1379 l 178 1163 b 178 1101 158 1143 157 1124 l 217 1064 b 274 1064 235 1046 257 1046 l 393 1183 b 410 1183 400 1190 404 1189 l 533 1061 b 592 1061 553 1042 574 1043 l 631 1099 b 631 1160 651 1121 651 1140 z m 753 660 b 404 997 753 751 733 997 b 56 660 75 997 56 751 l 56 313 b 404 -25 56 221 75 -25 b 753 313 733 -25 753 221 z m 514 386 b 404 214 514 279 507 214 b 294 386 301 214 294 279 l 294 586 b 404 758 294 693 301 758 b 514 586 507 758 514 693 z "},"Ö":{"ha":808,"x_min":0,"x_max":0,"o":"m 258 1088 b 338 1167 301 1088 338 1124 b 258 1246 338 1210 301 1246 b 179 1167 215 1246 179 1210 b 258 1088 179 1124 215 1088 z m 550 1088 b 629 1167 593 1088 629 1124 b 550 1246 629 1210 593 1246 b 471 1167 507 1246 471 1210 b 550 1088 471 1124 507 1088 z m 753 660 b 404 997 753 751 733 997 b 56 660 75 997 56 751 l 56 313 b 404 -25 56 221 75 -25 b 753 313 733 -25 753 221 z m 514 386 b 404 214 514 279 507 214 b 294 386 301 214 294 279 l 294 586 b 404 758 294 693 301 758 b 514 586 507 758 514 693 z "},"Ò":{"ha":808,"x_min":0,"x_max":0,"o":"m 408 1335 b 460 1313 431 1335 444 1328 l 571 1189 b 547 1138 594 1161 585 1138 l 456 1138 b 404 1156 435 1138 419 1143 l 244 1283 b 263 1335 214 1308 222 1335 z m 753 660 b 404 997 753 751 733 997 b 56 660 75 997 56 751 l 56 313 b 404 -25 56 221 75 -25 b 753 313 733 -25 753 221 z m 514 386 b 404 214 514 279 507 214 b 294 386 301 214 294 279 l 294 586 b 404 758 294 693 301 758 b 514 586 507 758 514 693 z "},"Ø":{"ha":836,"x_min":0,"x_max":0,"o":"m 689 1013 b 635 1003 667 1028 644 1022 l 606 953 b 404 997 557 981 492 997 b 56 660 75 997 56 751 l 56 313 b 114 99 56 264 61 174 l 81 42 b 97 -11 67 19 72 0 l 143 -39 b 199 -31 168 -56 188 -49 l 222 10 b 404 -25 268 -12 328 -25 b 753 313 733 -25 753 221 l 753 660 b 708 851 753 703 749 782 l 754 931 b 738 986 767 953 761 972 z m 294 586 b 404 758 294 693 301 758 b 481 736 440 758 464 750 l 294 413 z m 514 386 b 404 214 514 279 507 214 b 346 225 379 214 361 218 l 514 515 z "},"Õ":{"ha":808,"x_min":0,"x_max":0,"o":"m 213 1221 b 253 1208 226 1228 247 1219 b 678 1133 310 1104 571 1350 b 660 1093 688 1114 678 1100 l 596 1072 b 556 1085 582 1068 563 1072 b 131 1160 499 1189 238 943 b 149 1200 121 1179 128 1193 z m 753 660 b 404 997 753 751 733 997 b 56 660 75 997 56 751 l 56 313 b 404 -25 56 221 75 -25 b 753 313 733 -25 753 221 z m 514 386 b 404 214 514 279 507 214 b 294 386 301 214 294 279 l 294 586 b 404 758 294 693 301 758 b 514 586 507 758 514 693 z "},"P":{"ha":781,"x_min":0,"x_max":0,"o":"m 111 972 b 69 929 83 971 69 957 l 69 42 b 111 0 69 15 85 0 l 267 0 b 308 42 294 0 308 14 l 308 264 b 350 306 308 292 324 306 l 417 306 b 764 639 664 306 764 411 b 417 972 764 867 664 972 z m 350 544 b 308 586 324 544 308 560 l 308 692 b 350 733 308 719 324 733 l 425 733 b 525 639 492 733 525 725 b 425 544 525 553 492 544 z "},"Q":{"ha":813,"x_min":0,"x_max":0,"o":"m 801 49 b 804 108 821 68 822 89 l 742 175 b 738 194 738 181 736 186 b 753 313 750 240 753 285 l 753 660 b 404 997 753 751 733 997 b 56 660 75 997 56 751 l 56 313 b 404 -25 56 221 75 -25 b 558 -1 465 -25 517 -17 b 578 -6 567 1 572 0 l 631 -58 b 689 -58 650 -78 669 -78 z m 294 586 b 404 758 294 693 301 758 b 514 586 507 758 514 693 l 514 386 b 404 214 514 279 507 214 b 294 386 301 214 294 279 z "},"R":{"ha":824,"x_min":0,"x_max":0,"o":"m 654 349 b 658 367 651 356 653 363 b 764 639 732 419 764 510 b 417 972 764 867 664 972 l 113 972 b 69 929 88 972 69 954 l 69 43 b 113 0 69 18 88 0 l 268 0 b 311 43 293 0 311 18 l 311 263 b 354 306 311 288 329 306 l 410 306 b 421 299 414 306 418 303 l 565 19 b 597 0 571 7 583 0 l 756 0 b 801 75 799 0 821 39 z m 425 733 b 525 639 492 733 525 725 b 425 544 525 553 492 544 l 354 544 b 311 588 329 544 311 563 l 311 690 b 354 733 311 715 329 733 z "},"S":{"ha":794,"x_min":0,"x_max":0,"o":"m 713 663 b 749 708 738 668 750 683 b 388 994 740 808 674 994 b 53 707 76 994 51 749 b 497 296 53 388 471 414 b 388 218 506 258 456 218 b 265 324 322 218 271 257 b 219 360 263 353 247 365 l 63 325 b 26 279 38 319 25 304 b 388 -21 33 171 96 -21 b 764 267 717 -21 764 225 b 306 692 764 586 325 583 b 388 756 300 724 333 756 b 508 663 453 756 499 719 b 554 628 513 635 526 622 z "},"T":{"ha":822,"x_min":0,"x_max":0,"o":"m 292 692 b 250 733 292 719 278 733 l 56 733 b 14 775 29 733 14 749 l 14 931 b 56 972 14 958 29 972 l 767 972 b 808 931 794 972 808 958 l 808 775 b 767 733 808 749 794 733 l 572 733 b 531 692 546 733 531 719 l 531 42 b 489 0 531 15 517 0 l 333 0 b 292 42 307 0 292 15 z "},"U":{"ha":819,"x_min":0,"x_max":0,"o":"m 103 972 b 61 931 76 972 61 958 l 61 313 b 410 -25 61 221 81 -25 b 758 313 739 -25 758 221 l 758 931 b 717 972 758 958 744 972 l 561 972 b 519 931 535 972 519 958 l 519 386 b 410 214 519 279 513 214 b 300 386 307 214 300 279 l 300 931 b 258 972 300 958 286 972 z "},"Ú":{"ha":819,"x_min":0,"x_max":0,"o":"m 410 1156 b 358 1138 394 1143 379 1138 l 267 1138 b 243 1189 229 1138 219 1161 l 354 1313 b 406 1335 369 1328 383 1335 l 551 1335 b 569 1283 592 1335 600 1308 z m 103 972 b 61 931 76 972 61 958 l 61 313 b 410 -25 61 221 81 -25 b 758 313 739 -25 758 221 l 758 931 b 717 972 758 958 744 972 l 561 972 b 519 931 535 972 519 958 l 519 386 b 410 214 519 279 513 214 b 300 386 307 214 300 279 l 300 931 b 258 972 300 958 286 972 z "},"Û":{"ha":819,"x_min":0,"x_max":0,"o":"m 438 1360 b 379 1360 415 1382 399 1379 l 183 1163 b 183 1101 164 1143 163 1124 l 222 1064 b 279 1064 240 1046 263 1046 l 399 1183 b 415 1183 406 1190 410 1189 l 539 1061 b 597 1061 558 1042 579 1043 l 636 1099 b 636 1160 657 1121 657 1140 z m 103 972 b 61 931 76 972 61 958 l 61 313 b 410 -25 61 221 81 -25 b 758 313 739 -25 758 221 l 758 931 b 717 972 758 958 744 972 l 561 972 b 519 931 535 972 519 958 l 519 386 b 410 214 519 279 513 214 b 300 386 307 214 300 279 l 300 931 b 258 972 300 958 286 972 z "},"Ü":{"ha":819,"x_min":0,"x_max":0,"o":"m 264 1088 b 343 1167 307 1088 343 1124 b 264 1246 343 1210 307 1246 b 185 1167 221 1246 185 1210 b 264 1088 185 1124 221 1088 z m 556 1088 b 635 1167 599 1088 635 1124 b 556 1246 635 1210 599 1246 b 476 1167 513 1246 476 1210 b 556 1088 476 1124 513 1088 z m 103 972 b 61 931 76 972 61 958 l 61 313 b 410 -25 61 221 81 -25 b 758 313 739 -25 758 221 l 758 931 b 717 972 758 958 744 972 l 561 972 b 519 931 535 972 519 958 l 519 386 b 410 214 519 279 513 214 b 300 386 307 214 300 279 l 300 931 b 258 972 300 958 286 972 z "},"Ù":{"ha":819,"x_min":0,"x_max":0,"o":"m 414 1335 b 465 1313 436 1335 450 1328 l 576 1189 b 553 1138 600 1161 590 1138 l 461 1138 b 410 1156 440 1138 425 1143 l 250 1283 b 268 1335 219 1308 228 1335 z m 103 972 b 61 931 76 972 61 958 l 61 313 b 410 -25 61 221 81 -25 b 758 313 739 -25 758 221 l 758 931 b 717 972 758 958 744 972 l 561 972 b 519 931 535 972 519 958 l 519 386 b 410 214 519 279 513 214 b 300 386 307 214 300 279 l 300 931 b 258 972 300 958 286 972 z "},"V":{"ha":806,"x_min":0,"x_max":0,"o":"m 226 972 b 272 936 251 972 267 960 l 394 403 b 411 403 397 390 408 390 l 533 936 b 579 972 539 960 554 972 l 744 972 b 781 926 774 972 788 956 l 578 36 b 532 0 572 13 557 0 l 274 0 b 228 36 249 0 233 13 l 25 926 b 61 972 18 956 32 972 z "},"W":{"ha":1125,"x_min":0,"x_max":0,"o":"m 19 926 b 57 972 14 956 28 972 l 222 972 b 268 936 247 972 265 960 l 347 357 b 364 357 350 343 361 343 l 457 936 b 503 972 461 960 478 972 l 622 972 b 668 936 647 972 664 960 l 761 357 b 778 357 764 343 775 343 l 857 936 b 903 972 860 960 878 972 l 1068 972 b 1106 926 1097 972 1111 956 l 935 36 b 889 0 931 13 914 0 l 693 0 b 647 36 668 0 653 13 l 571 378 b 554 378 568 392 557 392 l 478 36 b 432 0 472 13 457 0 l 236 0 b 190 36 211 0 194 13 z "},"X":{"ha":833,"x_min":0,"x_max":0,"o":"m 558 494 b 558 514 554 501 554 507 l 792 922 b 764 972 808 951 796 972 l 590 972 b 540 944 567 972 551 964 l 426 751 b 407 751 421 742 413 742 l 294 944 b 244 972 283 964 268 972 l 72 972 b 43 922 39 972 26 951 l 279 521 b 279 501 283 514 283 508 l 13 50 b 42 0 -4 21 8 0 l 231 0 b 281 29 254 0 269 8 l 414 261 b 432 261 419 271 426 271 l 569 28 b 619 0 581 8 596 0 l 792 0 b 821 50 825 0 838 21 z "},"Y":{"ha":835,"x_min":0,"x_max":0,"o":"m 258 972 b 306 940 282 972 297 963 l 408 682 b 428 682 414 669 422 669 l 531 940 b 578 972 539 963 554 972 l 776 972 b 808 924 808 972 822 953 l 560 368 b 557 351 557 363 557 357 l 557 42 b 515 0 557 15 543 0 l 321 0 b 279 42 294 0 279 15 l 279 351 b 276 368 279 357 279 363 l 26 924 b 58 972 13 953 26 972 z "},"Z":{"ha":819,"x_min":0,"x_max":0,"o":"m 435 239 b 425 256 424 239 419 246 l 811 922 b 782 972 828 951 815 972 l 113 972 b 71 931 86 972 71 958 l 71 775 b 113 733 71 749 86 733 l 378 733 b 388 717 389 733 393 726 l 8 50 b 38 0 -8 21 4 0 l 728 0 b 769 42 756 0 769 15 l 769 197 b 728 239 769 225 756 239 z "},"a":{"ha":806,"x_min":0,"x_max":0,"o":"m 743 47 b 701 0 743 17 729 0 l 546 0 b 504 42 519 0 504 14 l 504 163 b 463 204 504 190 490 204 l 343 204 b 301 163 317 204 301 190 l 301 42 b 260 0 301 14 288 0 l 104 0 b 63 47 78 0 63 17 l 63 636 b 403 997 63 811 90 997 b 743 636 715 997 743 811 z m 504 636 b 403 736 504 703 494 736 b 301 636 311 736 301 703 l 301 485 b 343 443 301 458 317 443 l 463 443 b 504 486 490 444 504 458 z "},"á":{"ha":806,"x_min":0,"x_max":0,"o":"m 407 1156 b 356 1138 392 1143 376 1138 l 264 1138 b 240 1189 226 1138 217 1161 l 351 1313 b 403 1335 367 1328 381 1335 l 549 1335 b 567 1283 589 1335 597 1308 z m 743 47 b 701 0 743 17 729 0 l 546 0 b 504 42 519 0 504 14 l 504 163 b 463 204 504 190 490 204 l 343 204 b 301 163 317 204 301 190 l 301 42 b 260 0 301 14 288 0 l 104 0 b 63 47 78 0 63 17 l 63 636 b 403 997 63 811 90 997 b 743 636 715 997 743 811 z m 504 636 b 403 736 504 703 494 736 b 301 636 311 736 301 703 l 301 485 b 343 443 301 458 317 443 l 463 443 b 504 486 490 444 504 458 z "},"â":{"ha":806,"x_min":0,"x_max":0,"o":"m 435 1360 b 376 1360 413 1382 396 1379 l 181 1163 b 181 1101 161 1143 160 1124 l 219 1064 b 276 1064 238 1046 260 1046 l 396 1183 b 413 1183 403 1190 407 1189 l 536 1061 b 594 1061 556 1042 576 1043 l 633 1099 b 633 1160 654 1121 654 1140 z m 743 47 b 701 0 743 17 729 0 l 546 0 b 504 42 519 0 504 14 l 504 163 b 463 204 504 190 490 204 l 343 204 b 301 163 317 204 301 190 l 301 42 b 260 0 301 14 288 0 l 104 0 b 63 47 78 0 63 17 l 63 636 b 403 997 63 811 90 997 b 743 636 715 997 743 811 z m 504 636 b 403 736 504 703 494 736 b 301 636 311 736 301 703 l 301 485 b 343 443 301 458 317 443 l 463 443 b 504 486 490 444 504 458 z "},"ä":{"ha":806,"x_min":0,"x_max":0,"o":"m 261 1088 b 340 1167 304 1088 340 1124 b 261 1246 340 1210 304 1246 b 182 1167 218 1246 182 1210 b 261 1088 182 1124 218 1088 z m 553 1088 b 632 1167 596 1088 632 1124 b 553 1246 632 1210 596 1246 b 474 1167 510 1246 474 1210 b 553 1088 474 1124 510 1088 z m 743 47 b 701 0 743 17 729 0 l 546 0 b 504 42 519 0 504 14 l 504 163 b 463 204 504 190 490 204 l 343 204 b 301 163 317 204 301 190 l 301 42 b 260 0 301 14 288 0 l 104 0 b 63 47 78 0 63 17 l 63 636 b 403 997 63 811 90 997 b 743 636 715 997 743 811 z m 504 636 b 403 736 504 703 494 736 b 301 636 311 736 301 703 l 301 485 b 343 443 301 458 317 443 l 463 443 b 504 486 490 444 504 458 z "},"à":{"ha":806,"x_min":0,"x_max":0,"o":"m 411 1335 b 463 1313 433 1335 447 1328 l 574 1189 b 550 1138 597 1161 588 1138 l 458 1138 b 407 1156 438 1138 422 1143 l 247 1283 b 265 1335 217 1308 225 1335 z m 743 47 b 701 0 743 17 729 0 l 546 0 b 504 42 519 0 504 14 l 504 163 b 463 204 504 190 490 204 l 343 204 b 301 163 317 204 301 190 l 301 42 b 260 0 301 14 288 0 l 104 0 b 63 47 78 0 63 17 l 63 636 b 403 997 63 811 90 997 b 743 636 715 997 743 811 z m 504 636 b 403 736 504 703 494 736 b 301 636 311 736 301 703 l 301 485 b 343 443 301 458 317 443 l 463 443 b 504 486 490 444 504 458 z "},"ã":{"ha":806,"x_min":0,"x_max":0,"o":"m 215 1221 b 256 1208 229 1228 250 1219 b 681 1133 313 1104 574 1350 b 663 1093 690 1114 681 1100 l 599 1072 b 558 1085 585 1068 565 1072 b 133 1160 501 1189 240 943 b 151 1200 124 1179 131 1193 z m 743 47 b 701 0 743 17 729 0 l 546 0 b 504 42 519 0 504 14 l 504 163 b 463 204 504 190 490 204 l 343 204 b 301 163 317 204 301 190 l 301 42 b 260 0 301 14 288 0 l 104 0 b 63 47 78 0 63 17 l 63 636 b 403 997 63 811 90 997 b 743 636 715 997 743 811 z m 504 636 b 403 736 504 703 494 736 b 301 636 311 736 301 703 l 301 485 b 343 443 301 458 317 443 l 463 443 b 504 486 490 444 504 458 z "},"b":{"ha":814,"x_min":0,"x_max":0,"o":"m 111 972 b 69 929 83 971 69 957 l 69 42 b 111 0 69 15 85 0 l 454 0 b 792 256 715 0 792 83 b 693 438 792 342 750 411 b 764 639 750 500 764 592 b 403 972 764 867 664 972 z m 350 544 b 308 586 324 544 308 558 l 308 692 b 350 733 308 719 324 733 l 425 733 b 525 639 492 733 525 725 b 425 544 525 553 492 544 z m 349 197 b 307 239 322 197 307 211 l 307 303 b 349 344 307 331 322 344 l 439 344 b 536 269 506 344 536 335 b 436 197 536 204 503 197 z "},"c":{"ha":778,"x_min":0,"x_max":0,"o":"m 56 313 b 404 -25 56 221 75 -25 b 751 279 700 -25 746 174 b 721 319 753 300 740 315 l 564 354 b 510 314 536 361 514 343 b 404 214 501 250 481 214 b 294 386 301 214 294 279 l 294 586 b 404 758 294 693 301 758 b 511 661 479 758 504 722 b 567 618 515 632 538 613 l 721 653 b 751 692 740 657 753 672 b 404 997 746 799 700 997 b 56 660 75 997 56 751 z "},"d":{"ha":824,"x_min":0,"x_max":0,"o":"m 111 972 b 69 929 83 971 69 957 l 69 42 b 111 0 69 15 85 0 l 421 0 b 768 335 682 0 768 107 l 768 639 b 421 972 768 867 682 972 z m 350 239 b 308 281 324 239 308 254 l 308 692 b 350 733 308 719 324 733 l 425 733 b 525 639 492 733 525 725 b 525 333 525 638 525 335 b 425 239 525 250 492 239 z "},"e":{"ha":774,"x_min":0,"x_max":0,"o":"m 694 972 b 736 931 722 972 736 958 l 736 775 b 694 733 736 749 722 733 l 358 733 b 317 692 332 733 317 719 l 317 647 b 358 606 317 621 332 606 l 574 606 b 615 564 601 606 615 592 l 615 408 b 574 367 615 382 601 367 l 358 367 b 317 325 332 367 317 353 l 317 281 b 358 239 317 254 332 239 l 694 239 b 736 197 722 239 736 225 l 736 42 b 694 0 736 14 722 0 l 111 0 b 69 42 85 0 69 15 l 69 931 b 111 972 69 958 85 972 z "},"é":{"ha":774,"x_min":0,"x_max":0,"o":"m 417 1156 b 365 1138 401 1143 386 1138 l 274 1138 b 250 1189 236 1138 226 1161 l 361 1313 b 413 1335 376 1328 390 1335 l 558 1335 b 576 1283 599 1335 607 1308 z m 694 972 b 736 931 722 972 736 958 l 736 775 b 694 733 736 749 722 733 l 358 733 b 317 692 332 733 317 719 l 317 647 b 358 606 317 621 332 606 l 574 606 b 615 564 601 606 615 592 l 615 408 b 574 367 615 382 601 367 l 358 367 b 317 325 332 367 317 353 l 317 281 b 358 239 317 254 332 239 l 694 239 b 736 197 722 239 736 225 l 736 42 b 694 0 736 14 722 0 l 111 0 b 69 42 85 0 69 15 l 69 931 b 111 972 69 958 85 972 z "},"ê":{"ha":774,"x_min":0,"x_max":0,"o":"m 444 1360 b 386 1360 422 1382 406 1379 l 190 1163 b 190 1101 171 1143 169 1124 l 229 1064 b 286 1064 247 1046 269 1046 l 406 1183 b 422 1183 413 1190 417 1189 l 546 1061 b 604 1061 565 1042 586 1043 l 643 1099 b 643 1160 664 1121 664 1140 z m 694 972 b 736 931 722 972 736 958 l 736 775 b 694 733 736 749 722 733 l 358 733 b 317 692 332 733 317 719 l 317 647 b 358 606 317 621 332 606 l 574 606 b 615 564 601 606 615 592 l 615 408 b 574 367 615 382 601 367 l 358 367 b 317 325 332 367 317 353 l 317 281 b 358 239 317 254 332 239 l 694 239 b 736 197 722 239 736 225 l 736 42 b 694 0 736 14 722 0 l 111 0 b 69 42 85 0 69 15 l 69 931 b 111 972 69 958 85 972 z "},"ë":{"ha":774,"x_min":0,"x_max":0,"o":"m 271 1088 b 350 1167 314 1088 350 1124 b 271 1246 350 1210 314 1246 b 192 1167 228 1246 192 1210 b 271 1088 192 1124 228 1088 z m 563 1088 b 642 1167 606 1088 642 1124 b 563 1246 642 1210 606 1246 b 483 1167 519 1246 483 1210 b 563 1088 483 1124 519 1088 z m 694 972 b 736 931 722 972 736 958 l 736 775 b 694 733 736 749 722 733 l 358 733 b 317 692 332 733 317 719 l 317 647 b 358 606 317 621 332 606 l 574 606 b 615 564 601 606 615 592 l 615 408 b 574 367 615 382 601 367 l 358 367 b 317 325 332 367 317 353 l 317 281 b 358 239 317 254 332 239 l 694 239 b 736 197 722 239 736 225 l 736 42 b 694 0 736 14 722 0 l 111 0 b 69 42 85 0 69 15 l 69 931 b 111 972 69 958 85 972 z "},"è":{"ha":774,"x_min":0,"x_max":0,"o":"m 421 1335 b 472 1313 443 1335 457 1328 l 583 1189 b 560 1138 607 1161 597 1138 l 468 1138 b 417 1156 447 1138 432 1143 l 257 1283 b 275 1335 226 1308 235 1335 z m 694 972 b 736 931 722 972 736 958 l 736 775 b 694 733 736 749 722 733 l 358 733 b 317 692 332 733 317 719 l 317 647 b 358 606 317 621 332 606 l 574 606 b 615 564 601 606 615 592 l 615 408 b 574 367 615 382 601 367 l 358 367 b 317 325 332 367 317 353 l 317 281 b 358 239 317 254 332 239 l 694 239 b 736 197 722 239 736 225 l 736 42 b 694 0 736 14 722 0 l 111 0 b 69 42 85 0 69 15 l 69 931 b 111 972 69 958 85 972 z "},"f":{"ha":764,"x_min":0,"x_max":0,"o":"m 708 972 b 750 931 736 972 750 958 l 750 775 b 708 733 750 749 736 733 l 358 733 b 317 692 332 733 317 719 l 317 647 b 358 606 317 621 332 606 l 588 606 b 629 564 615 606 629 592 l 629 408 b 588 367 629 382 615 367 l 358 367 b 317 325 332 367 317 353 l 317 42 b 275 0 317 15 303 0 l 111 0 b 69 42 85 0 69 15 l 69 931 b 111 972 69 958 85 972 z "},"g":{"ha":806,"x_min":0,"x_max":0,"o":"m 56 313 b 404 -25 56 221 75 -25 b 753 313 733 -25 753 221 l 753 500 b 711 542 753 528 739 542 l 433 542 b 392 500 407 542 392 528 l 392 389 b 433 347 392 363 407 347 l 514 347 b 404 214 514 279 507 214 b 294 386 301 214 294 279 l 294 586 b 404 758 294 693 301 758 b 513 653 483 758 507 719 b 558 617 515 624 531 611 l 715 651 b 751 697 740 657 753 672 b 404 997 744 806 696 997 b 56 660 75 997 56 751 z "},"h":{"ha":833,"x_min":0,"x_max":0,"o":"m 267 972 b 308 931 293 972 308 957 l 308 583 b 350 542 308 557 324 542 l 483 542 b 525 583 511 542 525 557 l 525 931 b 567 972 525 957 540 972 l 722 972 b 764 931 750 972 764 958 l 764 42 b 722 0 764 15 750 0 l 567 0 b 525 42 540 0 525 15 l 525 261 b 483 303 525 289 511 303 l 350 303 b 308 261 324 303 308 289 l 308 42 b 267 0 308 15 294 0 l 111 0 b 69 42 85 0 69 15 l 69 931 b 111 972 69 958 83 972 z "},"i":{"ha":375,"x_min":0,"x_max":0,"o":"m 264 972 b 306 931 292 972 306 958 l 306 42 b 264 0 306 15 292 0 l 111 0 b 69 42 85 0 69 15 l 69 931 b 111 972 69 958 85 972 z "},"í":{"ha":375,"x_min":0,"x_max":0,"o":"m 188 1156 b 136 1138 172 1143 157 1138 l 44 1138 b 21 1189 7 1138 -3 1161 l 132 1313 b 183 1335 147 1328 161 1335 l 329 1335 b 347 1283 369 1335 378 1308 z m 264 972 b 306 931 292 972 306 958 l 306 42 b 264 0 306 15 292 0 l 111 0 b 69 42 85 0 69 15 l 69 931 b 111 972 69 958 85 972 z "},"î":{"ha":375,"x_min":0,"x_max":0,"o":"m 215 1360 b 157 1360 193 1382 176 1379 l -39 1163 b -39 1101 -58 1143 -60 1124 l 0 1064 b 57 1064 18 1046 40 1046 l 176 1183 b 193 1183 183 1190 188 1189 l 317 1061 b 375 1061 336 1042 357 1043 l 414 1099 b 414 1160 435 1121 435 1140 z m 264 972 b 306 931 292 972 306 958 l 306 42 b 264 0 306 15 292 0 l 111 0 b 69 42 85 0 69 15 l 69 931 b 111 972 69 958 85 972 z "},"ï":{"ha":375,"x_min":0,"x_max":0,"o":"m 42 1088 b 121 1167 85 1088 121 1124 b 42 1246 121 1210 85 1246 b -37 1167 -1 1246 -37 1210 b 42 1088 -37 1124 -1 1088 z m 333 1088 b 413 1167 376 1088 413 1124 b 333 1246 413 1210 376 1246 b 254 1167 290 1246 254 1210 b 333 1088 254 1124 290 1088 z m 264 972 b 306 931 292 972 306 958 l 306 42 b 264 0 306 15 292 0 l 111 0 b 69 42 85 0 69 15 l 69 931 b 111 972 69 958 85 972 z "},"ì":{"ha":375,"x_min":0,"x_max":0,"o":"m 192 1335 b 243 1313 214 1335 228 1328 l 354 1189 b 331 1138 378 1161 368 1138 l 239 1138 b 188 1156 218 1138 203 1143 l 28 1283 b 46 1335 -3 1308 6 1335 z m 264 972 b 306 931 292 972 306 958 l 306 42 b 264 0 306 15 292 0 l 111 0 b 69 42 85 0 69 15 l 69 931 b 111 972 69 958 85 972 z "},"j":{"ha":772,"x_min":0,"x_max":0,"o":"m 514 972 b 471 929 489 972 471 954 l 471 386 b 361 214 471 279 464 214 b 254 311 286 214 261 250 b 199 354 250 340 228 360 l 44 319 b 14 281 25 315 13 300 b 361 -25 19 174 65 -25 b 710 313 690 -25 710 221 l 710 929 b 667 972 710 954 692 972 z "},"k":{"ha":865,"x_min":0,"x_max":0,"o":"m 547 515 b 547 535 542 522 543 528 l 828 921 b 801 972 847 950 836 972 l 596 972 b 546 946 574 972 558 964 l 328 646 b 311 651 321 635 311 638 l 311 931 b 269 972 311 958 297 972 l 111 972 b 69 931 85 972 69 958 l 69 42 b 111 0 69 15 85 0 l 269 0 b 311 42 297 0 311 15 l 311 196 b 317 214 311 203 313 208 l 374 292 b 393 292 379 300 388 300 l 565 28 b 615 0 578 8 593 0 l 824 0 b 850 50 857 0 869 22 z "},"l":{"ha":718,"x_min":0,"x_max":0,"o":"m 267 972 b 308 931 294 972 308 958 l 308 281 b 350 239 308 254 324 239 l 660 239 b 701 197 688 239 701 225 l 701 42 b 660 0 701 14 688 0 l 111 0 b 69 42 85 0 69 15 l 69 931 b 111 972 69 958 85 972 z "},"m":{"ha":1100,"x_min":0,"x_max":0,"o":"m 399 972 b 443 935 424 972 438 958 l 542 531 b 558 531 544 517 556 517 l 657 935 b 701 972 663 958 676 972 l 989 972 b 1031 931 1017 972 1031 958 l 1031 42 b 989 0 1031 15 1017 0 l 833 0 b 792 42 807 0 792 15 l 792 589 b 776 590 792 599 779 600 l 642 36 b 596 0 636 13 621 0 l 504 0 b 458 36 479 0 464 13 l 324 590 b 308 589 321 600 308 599 l 308 42 b 267 0 308 15 294 0 l 111 0 b 69 42 83 0 69 15 l 69 931 b 111 972 69 958 83 972 z "},"n":{"ha":878,"x_min":0,"x_max":0,"o":"m 315 972 b 364 940 339 972 354 963 l 553 478 b 569 482 558 465 569 468 l 569 931 b 611 972 569 958 585 972 l 767 972 b 808 931 794 972 808 958 l 808 42 b 767 0 808 15 794 0 l 563 0 b 514 32 539 0 524 10 l 325 494 b 308 490 319 507 308 504 l 308 42 b 267 0 308 15 294 0 l 111 0 b 69 42 85 0 69 15 l 69 931 b 111 972 69 958 85 972 z "},"ñ":{"ha":878,"x_min":0,"x_max":0,"o":"m 261 1221 b 301 1208 275 1228 296 1219 b 726 1133 358 1104 619 1350 b 708 1093 736 1114 726 1100 l 644 1072 b 604 1085 631 1068 611 1072 b 179 1160 547 1189 286 943 b 197 1200 169 1179 176 1193 z m 315 972 b 364 940 339 972 354 963 l 553 478 b 569 482 558 465 569 468 l 569 931 b 611 972 569 958 585 972 l 767 972 b 808 931 794 972 808 958 l 808 42 b 767 0 808 15 794 0 l 563 0 b 514 32 539 0 524 10 l 325 494 b 308 490 319 507 308 504 l 308 42 b 267 0 308 15 294 0 l 111 0 b 69 42 85 0 69 15 l 69 931 b 111 972 69 958 85 972 z "},"o":{"ha":808,"x_min":0,"x_max":0,"o":"m 753 660 b 404 997 753 751 733 997 b 56 660 75 997 56 751 l 56 313 b 404 -25 56 221 75 -25 b 753 313 733 -25 753 221 z m 514 386 b 404 214 514 279 507 214 b 294 386 301 214 294 279 l 294 586 b 404 758 294 693 301 758 b 514 586 507 758 514 693 z "},"ó":{"ha":808,"x_min":0,"x_max":0,"o":"m 404 1156 b 353 1138 389 1143 374 1138 l 261 1138 b 238 1189 224 1138 214 1161 l 349 1313 b 400 1335 364 1328 378 1335 l 546 1335 b 564 1283 586 1335 594 1308 z m 753 660 b 404 997 753 751 733 997 b 56 660 75 997 56 751 l 56 313 b 404 -25 56 221 75 -25 b 753 313 733 -25 753 221 z m 514 386 b 404 214 514 279 507 214 b 294 386 301 214 294 279 l 294 586 b 404 758 294 693 301 758 b 514 586 507 758 514 693 z "},"ô":{"ha":808,"x_min":0,"x_max":0,"o":"m 432 1360 b 374 1360 410 1382 393 1379 l 178 1163 b 178 1101 158 1143 157 1124 l 217 1064 b 274 1064 235 1046 257 1046 l 393 1183 b 410 1183 400 1190 404 1189 l 533 1061 b 592 1061 553 1042 574 1043 l 631 1099 b 631 1160 651 1121 651 1140 z m 753 660 b 404 997 753 751 733 997 b 56 660 75 997 56 751 l 56 313 b 404 -25 56 221 75 -25 b 753 313 733 -25 753 221 z m 514 386 b 404 214 514 279 507 214 b 294 386 301 214 294 279 l 294 586 b 404 758 294 693 301 758 b 514 586 507 758 514 693 z "},"ö":{"ha":808,"x_min":0,"x_max":0,"o":"m 258 1088 b 338 1167 301 1088 338 1124 b 258 1246 338 1210 301 1246 b 179 1167 215 1246 179 1210 b 258 1088 179 1124 215 1088 z m 550 1088 b 629 1167 593 1088 629 1124 b 550 1246 629 1210 593 1246 b 471 1167 507 1246 471 1210 b 550 1088 471 1124 507 1088 z m 753 660 b 404 997 753 751 733 997 b 56 660 75 997 56 751 l 56 313 b 404 -25 56 221 75 -25 b 753 313 733 -25 753 221 z m 514 386 b 404 214 514 279 507 214 b 294 386 301 214 294 279 l 294 586 b 404 758 294 693 301 758 b 514 586 507 758 514 693 z "},"ò":{"ha":808,"x_min":0,"x_max":0,"o":"m 408 1335 b 460 1313 431 1335 444 1328 l 571 1189 b 547 1138 594 1161 585 1138 l 456 1138 b 404 1156 435 1138 419 1143 l 244 1283 b 263 1335 214 1308 222 1335 z m 753 660 b 404 997 753 751 733 997 b 56 660 75 997 56 751 l 56 313 b 404 -25 56 221 75 -25 b 753 313 733 -25 753 221 z m 514 386 b 404 214 514 279 507 214 b 294 386 301 214 294 279 l 294 586 b 404 758 294 693 301 758 b 514 586 507 758 514 693 z "},"ø":{"ha":836,"x_min":0,"x_max":0,"o":"m 689 1013 b 635 1003 667 1028 644 1022 l 606 953 b 404 997 557 981 492 997 b 56 660 75 997 56 751 l 56 313 b 114 99 56 264 61 174 l 81 42 b 97 -11 67 19 72 0 l 143 -39 b 199 -31 168 -56 188 -49 l 222 10 b 404 -25 268 -12 328 -25 b 753 313 733 -25 753 221 l 753 660 b 708 851 753 703 749 782 l 754 931 b 738 986 767 953 761 972 z m 294 586 b 404 758 294 693 301 758 b 481 736 440 758 464 750 l 294 413 z m 514 386 b 404 214 514 279 507 214 b 346 225 379 214 361 218 l 514 515 z "},"õ":{"ha":808,"x_min":0,"x_max":0,"o":"m 213 1221 b 253 1208 226 1228 247 1219 b 678 1133 310 1104 571 1350 b 660 1093 688 1114 678 1100 l 596 1072 b 556 1085 582 1068 563 1072 b 131 1160 499 1189 238 943 b 149 1200 121 1179 128 1193 z m 753 660 b 404 997 753 751 733 997 b 56 660 75 997 56 751 l 56 313 b 404 -25 56 221 75 -25 b 753 313 733 -25 753 221 z m 514 386 b 404 214 514 279 507 214 b 294 386 301 214 294 279 l 294 586 b 404 758 294 693 301 758 b 514 586 507 758 514 693 z "},"p":{"ha":781,"x_min":0,"x_max":0,"o":"m 111 972 b 69 929 83 971 69 957 l 69 42 b 111 0 69 15 85 0 l 267 0 b 308 42 294 0 308 14 l 308 264 b 350 306 308 292 324 306 l 417 306 b 764 639 664 306 764 411 b 417 972 764 867 664 972 z m 350 544 b 308 586 324 544 308 560 l 308 692 b 350 733 308 719 324 733 l 425 733 b 525 639 492 733 525 725 b 425 544 525 553 492 544 z "},"q":{"ha":813,"x_min":0,"x_max":0,"o":"m 801 49 b 804 108 821 68 822 89 l 742 175 b 738 194 738 181 736 186 b 753 313 750 240 753 285 l 753 660 b 404 997 753 751 733 997 b 56 660 75 997 56 751 l 56 313 b 404 -25 56 221 75 -25 b 558 -1 465 -25 517 -17 b 578 -6 567 1 572 0 l 631 -58 b 689 -58 650 -78 669 -78 z m 294 586 b 404 758 294 693 301 758 b 514 586 507 758 514 693 l 514 386 b 404 214 514 279 507 214 b 294 386 301 214 294 279 z "},"r":{"ha":824,"x_min":0,"x_max":0,"o":"m 654 349 b 658 367 651 356 653 363 b 764 639 732 419 764 510 b 417 972 764 867 664 972 l 113 972 b 69 929 88 972 69 954 l 69 43 b 113 0 69 18 88 0 l 268 0 b 311 43 293 0 311 18 l 311 263 b 354 306 311 288 329 306 l 410 306 b 421 299 414 306 418 303 l 565 19 b 597 0 571 7 583 0 l 756 0 b 801 75 799 0 821 39 z m 425 733 b 525 639 492 733 525 725 b 425 544 525 553 492 544 l 354 544 b 311 588 329 544 311 563 l 311 690 b 354 733 311 715 329 733 z "},"s":{"ha":794,"x_min":0,"x_max":0,"o":"m 713 663 b 749 708 738 668 750 683 b 388 994 740 808 674 994 b 53 707 76 994 51 749 b 497 296 53 388 471 414 b 388 218 506 258 456 218 b 265 324 322 218 271 257 b 219 360 263 353 247 365 l 63 325 b 26 279 38 319 25 304 b 388 -21 33 171 96 -21 b 764 267 717 -21 764 225 b 306 692 764 586 325 583 b 388 756 300 724 333 756 b 508 663 453 756 499 719 b 554 628 513 635 526 622 z "},"t":{"ha":822,"x_min":0,"x_max":0,"o":"m 292 692 b 250 733 292 719 278 733 l 56 733 b 14 775 29 733 14 749 l 14 931 b 56 972 14 958 29 972 l 767 972 b 808 931 794 972 808 958 l 808 775 b 767 733 808 749 794 733 l 572 733 b 531 692 546 733 531 719 l 531 42 b 489 0 531 15 517 0 l 333 0 b 292 42 307 0 292 15 z "},"u":{"ha":819,"x_min":0,"x_max":0,"o":"m 103 972 b 61 931 76 972 61 958 l 61 313 b 410 -25 61 221 81 -25 b 758 313 739 -25 758 221 l 758 931 b 717 972 758 958 744 972 l 561 972 b 519 931 535 972 519 958 l 519 386 b 410 214 519 279 513 214 b 300 386 307 214 300 279 l 300 931 b 258 972 300 958 286 972 z "},"ú":{"ha":819,"x_min":0,"x_max":0,"o":"m 410 1156 b 358 1138 394 1143 379 1138 l 267 1138 b 243 1189 229 1138 219 1161 l 354 1313 b 406 1335 369 1328 383 1335 l 551 1335 b 569 1283 592 1335 600 1308 z m 103 972 b 61 931 76 972 61 958 l 61 313 b 410 -25 61 221 81 -25 b 758 313 739 -25 758 221 l 758 931 b 717 972 758 958 744 972 l 561 972 b 519 931 535 972 519 958 l 519 386 b 410 214 519 279 513 214 b 300 386 307 214 300 279 l 300 931 b 258 972 300 958 286 972 z "},"û":{"ha":819,"x_min":0,"x_max":0,"o":"m 438 1360 b 379 1360 415 1382 399 1379 l 183 1163 b 183 1101 164 1143 163 1124 l 222 1064 b 279 1064 240 1046 263 1046 l 399 1183 b 415 1183 406 1190 410 1189 l 539 1061 b 597 1061 558 1042 579 1043 l 636 1099 b 636 1160 657 1121 657 1140 z m 103 972 b 61 931 76 972 61 958 l 61 313 b 410 -25 61 221 81 -25 b 758 313 739 -25 758 221 l 758 931 b 717 972 758 958 744 972 l 561 972 b 519 931 535 972 519 958 l 519 386 b 410 214 519 279 513 214 b 300 386 307 214 300 279 l 300 931 b 258 972 300 958 286 972 z "},"ü":{"ha":819,"x_min":0,"x_max":0,"o":"m 264 1088 b 343 1167 307 1088 343 1124 b 264 1246 343 1210 307 1246 b 185 1167 221 1246 185 1210 b 264 1088 185 1124 221 1088 z m 556 1088 b 635 1167 599 1088 635 1124 b 556 1246 635 1210 599 1246 b 476 1167 513 1246 476 1210 b 556 1088 476 1124 513 1088 z m 103 972 b 61 931 76 972 61 958 l 61 313 b 410 -25 61 221 81 -25 b 758 313 739 -25 758 221 l 758 931 b 717 972 758 958 744 972 l 561 972 b 519 931 535 972 519 958 l 519 386 b 410 214 519 279 513 214 b 300 386 307 214 300 279 l 300 931 b 258 972 300 958 286 972 z "},"ù":{"ha":819,"x_min":0,"x_max":0,"o":"m 414 1335 b 465 1313 436 1335 450 1328 l 576 1189 b 553 1138 600 1161 590 1138 l 461 1138 b 410 1156 440 1138 425 1143 l 250 1283 b 268 1335 219 1308 228 1335 z m 103 972 b 61 931 76 972 61 958 l 61 313 b 410 -25 61 221 81 -25 b 758 313 739 -25 758 221 l 758 931 b 717 972 758 958 744 972 l 561 972 b 519 931 535 972 519 958 l 519 386 b 410 214 519 279 513 214 b 300 386 307 214 300 279 l 300 931 b 258 972 300 958 286 972 z "},"v":{"ha":806,"x_min":0,"x_max":0,"o":"m 226 972 b 272 936 251 972 267 960 l 394 403 b 411 403 397 390 408 390 l 533 936 b 579 972 539 960 554 972 l 744 972 b 781 926 774 972 788 956 l 578 36 b 532 0 572 13 557 0 l 274 0 b 228 36 249 0 233 13 l 25 926 b 61 972 18 956 32 972 z "},"w":{"ha":1125,"x_min":0,"x_max":0,"o":"m 19 926 b 57 972 14 956 28 972 l 222 972 b 268 936 247 972 265 960 l 347 357 b 364 357 350 343 361 343 l 457 936 b 503 972 461 960 478 972 l 622 972 b 668 936 647 972 664 960 l 761 357 b 778 357 764 343 775 343 l 857 936 b 903 972 860 960 878 972 l 1068 972 b 1106 926 1097 972 1111 956 l 935 36 b 889 0 931 13 914 0 l 693 0 b 647 36 668 0 653 13 l 571 378 b 554 378 568 392 557 392 l 478 36 b 432 0 472 13 457 0 l 236 0 b 190 36 211 0 194 13 z "},"x":{"ha":833,"x_min":0,"x_max":0,"o":"m 558 494 b 558 514 554 501 554 507 l 792 922 b 764 972 808 951 796 972 l 590 972 b 540 944 567 972 551 964 l 426 751 b 407 751 421 742 413 742 l 294 944 b 244 972 283 964 268 972 l 72 972 b 43 922 39 972 26 951 l 279 521 b 279 501 283 514 283 508 l 13 50 b 42 0 -4 21 8 0 l 231 0 b 281 29 254 0 269 8 l 414 261 b 432 261 419 271 426 271 l 569 28 b 619 0 581 8 596 0 l 792 0 b 821 50 825 0 838 21 z "},"y":{"ha":835,"x_min":0,"x_max":0,"o":"m 258 972 b 306 940 282 972 297 963 l 408 682 b 428 682 414 669 422 669 l 531 940 b 578 972 539 963 554 972 l 776 972 b 808 924 808 972 822 953 l 560 368 b 557 351 557 363 557 357 l 557 42 b 515 0 557 15 543 0 l 321 0 b 279 42 294 0 279 15 l 279 351 b 276 368 279 357 279 363 l 26 924 b 58 972 13 953 26 972 z "},"z":{"ha":819,"x_min":0,"x_max":0,"o":"m 435 239 b 425 256 424 239 419 246 l 811 922 b 782 972 828 951 815 972 l 113 972 b 71 931 86 972 71 958 l 71 775 b 113 733 71 749 86 733 l 378 733 b 388 717 389 733 393 726 l 8 50 b 38 0 -8 21 4 0 l 728 0 b 769 42 756 0 769 15 l 769 197 b 728 239 769 225 756 239 z "},"*":{"ha":556,"x_min":0,"x_max":0,"o":"m 532 868 l 513 928 b 454 947 504 949 479 958 l 353 906 b 338 917 343 901 338 906 l 346 1026 b 311 1074 346 1053 333 1074 l 247 1074 b 211 1028 228 1074 211 1054 l 221 917 b 204 906 221 906 215 901 l 104 947 b 47 932 79 957 56 950 l 28 869 b 50 824 21 853 28 832 l 169 793 b 175 775 179 790 182 783 l 103 690 b 103 631 86 669 88 644 l 104 631 l 154 594 b 211 614 171 583 196 589 l 269 710 b 289 710 275 718 283 718 l 346 614 b 403 594 363 589 388 583 l 449 626 b 456 690 469 636 476 665 l 383 775 b 389 794 376 783 379 792 l 496 821 b 532 867 525 825 535 850 z "},"\\":{"ha":833,"x_min":0,"x_max":0,"o":"m 549 -104 b 597 -137 557 -126 572 -137 l 665 -137 b 699 -89 696 -137 710 -118 l 285 1033 b 236 1067 276 1056 261 1067 l 168 1067 b 135 1018 138 1067 124 1047 z "},"•":{"ha":833,"x_min":0,"x_max":0,"o":"m 417 346 b 557 486 493 346 557 410 b 417 626 557 563 493 626 b 276 486 340 626 276 563 b 417 346 276 410 340 346 z "},":":{"ha":378,"x_min":0,"x_max":0,"o":"m 267 611 b 308 569 294 611 308 597 l 308 414 b 267 372 308 388 294 372 l 111 372 b 69 414 85 372 69 388 l 69 569 b 111 611 69 597 85 611 z m 267 239 b 308 197 294 239 308 225 l 308 42 b 267 0 308 15 294 0 l 111 0 b 69 42 85 0 69 15 l 69 197 b 111 239 69 225 85 239 z "},",":{"ha":329,"x_min":0,"x_max":0,"o":"m 253 239 b 294 197 281 239 294 225 l 294 42 b 143 -151 294 -60 250 -140 b 131 -121 125 -153 118 -136 b 175 -14 168 -76 174 -42 b 161 0 175 -6 169 0 l 97 0 b 56 42 71 0 56 15 l 56 197 b 97 239 56 225 71 239 z "},"…":{"ha":1000,"x_min":0,"x_max":0,"o":"m 253 239 b 294 197 281 239 294 225 l 294 42 b 253 0 294 15 281 0 l 97 0 b 56 42 71 0 56 15 l 56 197 b 97 239 56 225 71 239 z m 597 239 b 639 197 625 239 639 225 l 639 42 b 597 0 639 15 625 0 l 442 0 b 400 42 415 0 400 15 l 400 197 b 442 239 400 225 415 239 z m 931 239 b 972 197 958 239 972 225 l 972 42 b 931 0 972 15 958 0 l 775 0 b 733 42 749 0 733 15 l 733 197 b 775 239 733 225 749 239 z "},"!":{"ha":461,"x_min":0,"x_max":0,"o":"m 336 972 b 378 931 364 972 379 958 l 350 347 b 308 306 349 321 336 306 l 153 306 b 111 347 126 306 113 321 l 83 931 b 125 972 82 958 99 972 z m 308 239 b 350 197 336 239 350 225 l 350 42 b 308 0 350 15 336 0 l 153 0 b 111 42 126 0 111 15 l 111 197 b 153 239 111 225 126 239 z "},"¡":{"ha":461,"x_min":0,"x_max":0,"o":"m 308 457 b 350 499 336 457 350 471 l 350 654 b 308 696 350 681 336 696 l 153 696 b 111 654 126 696 111 681 l 111 499 b 153 457 111 471 126 457 z m 336 -276 b 378 -235 364 -276 379 -262 l 350 349 b 308 390 349 375 336 390 l 153 390 b 111 349 126 390 113 375 l 83 -235 b 125 -276 82 -262 99 -276 z "},"#":{"ha":833,"x_min":0,"x_max":0,"o":"m 797 556 b 843 593 822 556 838 568 l 854 649 b 817 694 860 678 846 694 l 686 694 b 674 710 676 694 671 700 l 719 926 b 682 972 725 956 711 972 l 628 972 b 582 935 603 972 588 960 l 533 707 b 518 694 532 699 526 694 l 408 694 b 396 710 399 694 393 700 l 442 926 b 404 972 447 956 433 972 l 350 972 b 304 935 325 972 310 960 l 256 707 b 240 694 254 699 249 694 l 96 694 b 50 657 71 694 56 682 l 39 601 b 76 556 33 572 47 556 l 208 556 b 221 540 218 556 222 550 l 197 429 b 182 417 194 421 190 417 l 38 417 b -10 379 13 417 -4 404 l -21 324 b 18 278 -26 294 -12 278 l 149 278 b 161 263 158 278 164 272 l 115 46 b 153 0 110 17 124 0 l 207 0 b 253 38 232 0 247 13 l 301 265 b 317 278 303 274 308 278 l 426 278 b 439 263 436 278 442 272 l 393 46 b 431 0 388 17 401 0 l 485 0 b 531 38 510 0 525 13 l 579 265 b 594 278 581 274 586 278 l 739 278 b 785 315 764 278 779 290 l 796 371 b 758 417 801 400 788 417 l 626 417 b 614 432 617 417 613 422 l 638 543 b 653 556 640 551 644 556 z m 475 429 b 460 417 472 421 468 417 l 349 417 b 336 432 339 417 335 422 l 360 543 b 375 556 363 551 367 556 l 486 556 b 499 540 496 556 500 550 z "},".":{"ha":329,"x_min":0,"x_max":0,"o":"m 253 239 b 294 197 281 239 294 225 l 294 42 b 253 0 294 15 281 0 l 97 0 b 56 42 71 0 56 15 l 56 197 b 97 239 56 225 71 239 z "},"·":{"ha":322,"x_min":0,"x_max":0,"o":"m 239 603 b 281 561 267 603 281 589 l 281 406 b 239 364 281 379 267 364 l 83 364 b 42 406 57 364 42 379 l 42 561 b 83 603 42 589 57 603 z "},"?":{"ha":833,"x_min":0,"x_max":0,"o":"m 500 310 b 547 344 525 310 538 321 b 758 710 597 460 758 479 b 438 997 760 751 749 997 b 90 711 151 997 99 811 b 126 665 89 686 101 671 l 285 631 b 331 665 313 625 326 638 b 438 758 340 722 372 758 b 506 667 492 758 514 708 b 304 356 476 525 338 544 b 343 310 299 326 315 310 z m 494 239 b 536 197 522 239 536 225 l 536 42 b 494 0 536 15 522 0 l 339 0 b 297 42 313 0 297 15 l 297 197 b 339 239 297 225 313 239 z "},"¿":{"ha":833,"x_min":0,"x_max":0,"o":"m 354 481 b 313 522 326 481 313 494 l 313 678 b 354 719 313 704 326 719 l 510 719 b 551 678 536 719 551 704 l 551 522 b 510 481 551 494 536 481 z m 349 410 b 301 375 324 410 311 399 b 90 10 251 260 90 240 b 411 -278 89 -32 100 -278 b 758 8 697 -278 750 -92 b 722 54 760 33 747 49 l 564 89 b 518 54 536 94 522 82 b 411 -39 508 -3 476 -39 b 343 53 357 -39 335 11 b 544 364 372 194 511 175 b 506 410 550 393 533 410 z "},"\"":{"ha":544,"x_min":0,"x_max":0,"o":"m 211 1042 b 253 1000 239 1042 256 1028 l 225 775 b 183 733 221 749 211 733 l 111 733 b 69 775 85 733 74 749 l 42 1000 b 83 1042 39 1028 57 1042 z m 461 1042 b 503 1000 489 1042 506 1028 l 475 775 b 433 733 471 749 461 733 l 361 733 b 319 775 335 733 324 749 l 292 1000 b 333 1042 289 1028 307 1042 z "},"'":{"ha":294,"x_min":0,"x_max":0,"o":"m 211 1042 b 253 1000 239 1042 256 1028 l 225 775 b 183 733 221 749 211 733 l 111 733 b 69 775 85 733 74 749 l 42 1000 b 83 1042 39 1028 57 1042 z "},";":{"ha":350,"x_min":0,"x_max":0,"o":"m 253 611 b 294 569 281 611 294 597 l 294 414 b 253 372 294 388 281 372 l 97 372 b 56 414 71 372 56 388 l 56 569 b 97 611 56 597 71 611 z m 253 239 b 294 197 281 239 294 225 l 294 42 b 143 -151 294 -82 250 -140 b 131 -121 125 -153 118 -136 b 175 -14 168 -76 174 -42 b 161 0 175 -6 169 0 l 97 0 b 56 42 71 0 56 15 l 56 197 b 97 239 56 225 71 239 z "},"/":{"ha":833,"x_min":0,"x_max":0,"o":"m 597 1065 b 549 1032 572 1065 557 1054 l 135 -90 b 168 -139 124 -119 138 -139 l 236 -139 b 285 -106 261 -139 276 -128 l 699 1017 b 665 1065 710 1046 696 1065 z "},"_":{"ha":833,"x_min":0,"x_max":0,"o":"m 15 -181 b 57 -222 15 -207 31 -222 l 776 -222 b 818 -181 804 -222 818 -207 l 818 -125 b 776 -83 818 -97 804 -83 l 57 -83 b 15 -125 31 -83 15 -97 z "},"{":{"ha":368,"x_min":0,"x_max":0,"o":"m 326 -189 b 282 -228 326 -217 310 -232 b 61 353 -42 -185 171 286 b 28 397 42 365 28 372 l 28 478 b 61 522 28 503 42 510 b 282 1103 169 590 -42 1061 b 326 1064 310 1107 326 1092 l 326 974 b 292 929 326 950 313 938 b 224 458 160 874 300 575 b 225 414 207 432 208 442 b 292 -54 299 293 161 1 b 326 -99 313 -62 326 -75 z "},"}":{"ha":368,"x_min":0,"x_max":0,"o":"m 42 1064 b 86 1103 42 1092 58 1107 b 307 522 410 1061 199 590 b 340 478 326 510 340 503 l 340 397 b 307 353 340 372 326 365 b 86 -228 197 286 410 -185 b 42 -189 58 -232 42 -217 l 42 -99 b 76 -54 42 -75 56 -62 b 143 414 207 1 69 293 b 144 458 160 442 161 432 b 76 929 68 575 208 874 b 42 974 56 938 42 950 z "},"[":{"ha":389,"x_min":0,"x_max":0,"o":"m 306 1111 b 347 1069 333 1111 347 1097 l 347 1014 b 306 972 347 988 333 972 l 222 972 b 181 931 196 972 181 958 l 181 -69 b 222 -111 181 -96 196 -111 l 306 -111 b 347 -153 333 -111 347 -125 l 347 -236 b 306 -278 347 -264 333 -278 l 83 -278 b 42 -236 57 -278 42 -262 l 42 1069 b 83 1111 42 1097 57 1111 z "},"]":{"ha":389,"x_min":0,"x_max":0,"o":"m 347 -236 b 306 -278 347 -262 332 -278 l 83 -278 b 42 -236 56 -278 42 -264 l 42 -153 b 83 -111 42 -125 56 -111 l 167 -111 b 208 -69 193 -111 208 -96 l 208 931 b 167 972 208 958 193 972 l 83 972 b 42 1014 56 972 42 988 l 42 1069 b 83 1111 42 1097 56 1111 l 306 1111 b 347 1069 332 1111 347 1097 z "},"(":{"ha":410,"x_min":0,"x_max":0,"o":"m 347 914 b 188 438 246 801 186 615 b 347 -25 189 264 249 85 b 368 -78 361 -42 368 -56 b 368 -150 368 -92 368 -135 b 314 -176 368 -187 342 -201 b 28 440 164 -39 28 192 b 317 1067 28 690 164 929 b 368 1043 343 1092 368 1079 b 368 965 368 1025 368 981 b 347 914 368 944 361 931 z "},")":{"ha":410,"x_min":0,"x_max":0,"o":"m 63 914 b 42 965 49 931 42 944 b 42 1043 42 981 42 1025 b 93 1067 42 1079 67 1092 b 382 440 246 929 382 690 b 96 -176 382 192 246 -39 b 42 -150 68 -201 42 -187 b 42 -78 42 -135 42 -92 b 63 -25 42 -56 49 -42 b 222 438 161 85 221 264 b 63 914 224 615 164 801 z "},"—":{"ha":1275,"x_min":0,"x_max":0,"o":"m 69 388 b 111 346 69 361 85 346 l 1164 346 b 1206 388 1192 346 1206 361 l 1206 543 b 1164 585 1206 571 1192 585 l 111 585 b 69 543 85 585 69 571 z "},"–":{"ha":833,"x_min":0,"x_max":0,"o":"m 126 388 b 168 346 126 361 142 346 l 665 346 b 707 388 693 346 707 361 l 707 543 b 665 585 707 571 693 585 l 168 585 b 126 543 142 585 126 571 z "},"-":{"ha":914,"x_min":0,"x_max":0,"o":"m 97 376 b 139 335 97 350 113 335 l 775 335 b 817 376 803 335 817 350 l 817 532 b 775 574 817 560 803 574 l 139 574 b 97 532 113 574 97 560 z "},"«":{"ha":790,"x_min":0,"x_max":0,"o":"m 442 172 b 442 231 460 190 461 211 l 246 429 b 246 446 239 433 239 439 l 442 643 b 442 700 460 660 460 682 l 404 739 b 343 739 382 760 363 758 l 69 465 b 69 407 50 446 50 429 l 343 133 b 404 133 363 113 382 113 z m 719 172 b 719 231 740 190 740 211 l 524 429 b 524 446 517 433 517 439 l 719 643 b 719 700 740 660 740 682 l 681 739 b 622 739 660 760 640 758 l 347 465 b 347 407 328 446 328 429 l 622 133 b 681 133 640 113 660 113 z "},"»":{"ha":790,"x_min":0,"x_max":0,"o":"m 443 407 b 443 465 463 429 463 446 l 168 739 b 110 739 150 758 131 760 l 71 700 b 71 643 50 682 50 660 l 267 446 b 267 429 274 439 274 433 l 71 231 b 71 172 50 211 50 190 l 110 133 b 168 133 131 113 150 113 z m 721 407 b 721 465 740 429 740 446 l 447 739 b 386 739 428 758 408 760 l 349 700 b 349 643 331 682 331 660 l 544 446 b 544 429 551 439 551 433 l 349 231 b 349 172 329 211 331 190 l 386 133 b 447 133 408 113 428 113 z "},"‹":{"ha":513,"x_min":0,"x_max":0,"o":"m 443 172 b 443 231 461 190 463 211 l 247 429 b 247 446 240 433 240 439 l 443 643 b 443 700 461 660 461 682 l 406 739 b 344 739 383 760 364 758 l 71 465 b 71 407 51 446 51 429 l 344 133 b 406 133 364 113 383 113 z "},"›":{"ha":513,"x_min":0,"x_max":0,"o":"m 442 407 b 442 465 461 429 461 446 l 168 739 b 107 739 149 758 129 760 l 69 700 b 69 643 51 682 51 660 l 265 446 b 265 429 272 439 272 433 l 69 231 b 69 172 50 211 51 190 l 107 133 b 168 133 129 113 149 113 z "},"„":{"ha":621,"x_min":0,"x_max":0,"o":"m 253 239 b 294 197 281 239 294 225 l 294 42 b 143 -151 294 -60 250 -140 b 131 -121 125 -153 118 -136 b 175 -14 168 -76 174 -42 b 161 0 175 -6 169 0 l 97 0 b 56 42 71 0 56 15 l 56 197 b 97 239 56 225 71 239 z m 544 239 b 586 197 572 239 586 225 l 586 42 b 435 -151 586 -60 542 -140 b 422 -121 417 -153 410 -136 b 467 -14 460 -76 465 -42 b 453 0 467 -6 461 0 l 389 0 b 347 42 363 0 347 15 l 347 197 b 389 239 347 225 363 239 z "},"“":{"ha":600,"x_min":0,"x_max":0,"o":"m 83 579 b 42 621 56 579 42 593 l 42 776 b 193 969 42 878 86 958 b 206 939 211 971 218 954 b 161 832 168 894 163 860 b 175 818 161 824 167 818 l 239 818 b 281 776 265 818 281 803 l 281 621 b 239 579 281 593 265 579 z m 361 579 b 319 621 333 579 319 593 l 319 776 b 471 969 319 878 364 958 b 483 939 489 971 496 954 b 439 832 446 894 440 860 b 453 818 439 824 444 818 l 517 818 b 558 776 543 818 558 803 l 558 621 b 517 579 558 593 543 579 z "},"”":{"ha":600,"x_min":0,"x_max":0,"o":"m 239 969 b 281 928 267 969 281 956 l 281 772 b 129 579 281 671 236 590 b 117 610 111 578 104 594 b 161 717 154 654 160 689 b 147 731 161 725 156 731 l 83 731 b 42 772 57 731 42 746 l 42 928 b 83 969 42 956 57 969 z m 517 969 b 558 928 544 969 558 956 l 558 772 b 407 579 558 671 514 590 b 394 610 389 578 382 594 b 439 717 432 654 438 689 b 425 731 439 725 433 731 l 361 731 b 319 772 335 731 319 746 l 319 928 b 361 969 319 956 335 969 z "},"‘":{"ha":322,"x_min":0,"x_max":0,"o":"m 83 585 b 42 626 56 585 42 599 l 42 782 b 193 975 42 883 86 964 b 206 944 211 976 218 960 b 161 838 168 900 163 865 b 175 824 161 829 167 824 l 239 824 b 281 782 265 824 281 808 l 281 626 b 239 585 281 599 265 585 z "},"’":{"ha":322,"x_min":0,"x_max":0,"o":"m 239 972 b 281 931 267 972 281 958 l 281 775 b 129 582 281 674 236 593 b 117 613 111 581 104 597 b 161 719 154 657 160 692 b 147 733 161 728 156 733 l 83 733 b 42 775 57 733 42 749 l 42 931 b 83 972 42 958 57 972 z "},"‚":{"ha":329,"x_min":0,"x_max":0,"o":"m 253 239 b 294 197 281 239 294 225 l 294 42 b 143 -151 294 -60 250 -140 b 131 -121 125 -153 118 -136 b 175 -14 168 -76 174 -42 b 161 0 175 -6 169 0 l 97 0 b 56 42 71 0 56 15 l 56 197 b 97 239 56 225 71 239 z "}," ":{"ha":417,"x_min":0,"x_max":0,"o":""},"¢":{"ha":657,"x_min":0,"x_max":0,"o":"m 493 454 b 456 424 471 458 460 447 b 389 314 450 365 438 328 l 389 660 b 456 547 438 646 450 608 b 493 518 460 524 471 514 l 586 540 b 615 579 607 546 617 560 b 389 822 613 660 578 799 l 389 939 b 354 972 389 960 378 972 l 308 972 b 274 939 286 972 274 960 l 274 824 b 42 486 56 797 42 613 b 274 150 42 361 49 176 l 274 33 b 308 0 274 11 286 0 l 354 0 b 389 33 378 0 389 11 l 389 151 b 615 394 578 175 613 313 b 586 432 617 414 607 428 z m 274 313 b 201 486 206 331 201 388 b 274 661 201 588 207 643 z "},"$":{"ha":804,"x_min":0,"x_max":0,"o":"m 681 650 b 713 694 704 656 715 669 b 517 946 706 772 671 901 l 517 1035 b 475 1076 517 1063 503 1076 l 319 1076 b 278 1035 293 1076 278 1063 l 278 949 b 88 682 90 896 86 715 b 485 314 93 375 458 429 b 396 239 492 286 474 240 b 293 339 321 238 300 275 b 250 371 289 367 275 376 l 103 336 b 69 292 81 331 68 315 b 267 26 78 207 110 72 l 267 -65 b 308 -106 267 -92 282 -107 l 464 -106 b 506 -64 492 -106 506 -92 l 506 22 b 735 290 715 72 736 257 b 325 671 731 597 347 565 b 388 733 318 697 338 732 b 489 646 449 735 478 700 b 533 614 493 619 507 607 z "},"~":{"ha":833,"x_min":0,"x_max":0,"o":"m 161 585 b 215 568 181 594 208 583 b 782 469 292 431 639 758 b 756 415 793 443 782 425 l 672 389 b 618 406 654 382 628 389 b 51 504 543 543 196 215 b 78 558 40 531 49 549 z "},"÷":{"ha":833,"x_min":0,"x_max":0,"o":"m 417 624 b 533 740 486 624 533 669 b 417 857 533 800 486 857 b 300 740 347 857 300 800 b 417 624 300 669 347 624 z m 57 574 b 15 532 31 574 15 560 l 15 376 b 57 335 15 350 31 335 l 776 335 b 818 376 804 335 818 350 l 818 532 b 776 574 818 560 804 574 z m 417 54 b 533 171 486 54 533 111 b 417 288 533 242 486 288 b 300 171 347 288 300 242 b 417 54 300 111 347 54 z "},"=":{"ha":914,"x_min":0,"x_max":0,"o":"m 97 540 b 139 499 97 514 113 499 l 775 499 b 817 540 803 499 817 514 l 817 696 b 775 738 817 724 803 738 l 139 738 b 97 696 113 738 97 724 z m 97 192 b 139 150 97 165 113 150 l 775 150 b 817 192 803 150 817 165 l 817 347 b 775 389 817 375 803 389 l 139 389 b 97 347 113 389 97 375 z "},"−":{"ha":833,"x_min":0,"x_max":0,"o":"m 99 374 b 140 332 99 347 114 332 l 693 332 b 735 374 721 332 735 347 l 735 457 b 693 499 735 485 721 499 l 140 499 b 99 457 114 499 99 485 z "},"×":{"ha":833,"x_min":0,"x_max":0,"o":"m 426 636 b 407 636 421 629 413 629 l 247 796 b 188 796 228 814 207 815 l 78 686 b 78 626 60 667 60 646 l 238 467 b 238 447 244 461 244 454 l 78 288 b 78 228 60 268 58 247 l 188 118 b 247 118 207 100 228 100 l 407 278 b 426 278 414 285 419 285 l 586 118 b 646 118 606 99 626 100 l 756 228 b 756 288 775 247 775 268 l 596 447 b 596 467 589 454 589 461 l 756 626 b 756 686 775 646 774 667 l 646 796 b 586 796 626 815 606 815 z "},"≠":{"ha":914,"x_min":0,"x_max":0,"o":"m 775 500 b 817 542 803 500 817 515 l 817 697 b 775 739 817 725 803 739 l 696 739 l 754 856 b 721 892 765 876 751 892 l 653 892 b 604 867 628 892 613 883 l 540 739 l 139 739 b 97 697 113 739 97 725 l 97 542 b 139 500 97 515 113 500 l 421 500 l 367 390 l 139 390 b 97 349 113 390 97 376 l 97 193 b 139 151 97 167 113 151 l 247 151 l 190 36 b 224 0 179 14 193 0 l 292 0 b 340 25 317 0 332 8 l 403 151 l 775 151 b 817 193 803 151 817 167 l 817 349 b 775 390 817 376 803 390 l 522 390 l 576 500 z "},"%":{"ha":900,"x_min":0,"x_max":0,"o":"m 758 972 b 703 939 733 972 715 961 l 50 49 b 74 0 32 19 43 0 l 142 0 b 197 33 167 0 183 11 l 850 924 b 826 972 867 953 857 972 z m 203 622 b 343 763 279 622 343 686 b 203 903 343 839 279 903 b 63 763 126 903 63 839 b 203 622 63 686 126 622 z m 697 69 b 838 210 774 69 838 133 b 697 350 838 286 774 350 b 557 210 621 350 557 286 b 697 69 557 133 621 69 z "},"+":{"ha":969,"x_min":0,"x_max":0,"o":"m 618 574 b 604 588 610 574 604 579 l 604 814 b 563 856 604 840 590 856 l 407 856 b 365 814 381 856 365 840 l 365 588 b 351 574 365 579 361 574 l 125 574 b 83 532 99 574 83 560 l 83 376 b 125 335 83 350 99 335 l 351 335 b 365 321 361 335 365 331 l 365 94 b 407 53 365 67 381 53 l 563 53 b 604 94 590 53 604 67 l 604 321 b 618 335 604 331 610 335 l 844 335 b 886 376 872 335 886 350 l 886 532 b 844 574 886 560 872 574 z "},"&":{"ha":892,"x_min":0,"x_max":0,"o":"m 736 399 b 678 401 718 419 699 419 b 617 349 660 383 636 364 b 597 350 610 343 603 343 l 510 450 b 511 469 503 457 504 464 b 664 704 611 546 646 622 b 429 996 692 850 599 979 b 122 797 240 1014 147 908 b 192 525 94 676 144 583 b 189 506 199 518 197 511 b 63 131 39 392 10 242 b 331 -25 104 47 200 -25 b 579 49 413 -25 501 -3 b 599 46 586 53 593 53 l 629 8 b 688 1 646 -12 667 -15 l 781 74 b 785 132 801 90 804 111 l 756 165 b 757 185 750 171 750 178 b 821 240 778 201 801 222 b 824 299 840 258 840 279 z m 318 749 b 401 806 325 781 354 811 b 463 721 450 800 468 750 b 382 629 456 690 422 656 b 363 633 375 625 368 626 b 318 749 317 697 311 715 z m 278 214 b 328 347 236 267 279 311 b 346 344 333 351 340 350 b 439 233 371 314 414 263 b 436 214 444 226 444 219 b 278 214 379 179 307 176 z "},"@":{"ha":1161,"x_min":0,"x_max":0,"o":"m 719 147 b 660 168 706 169 686 175 b 574 153 635 161 604 156 b 221 486 376 138 221 288 b 579 846 221 685 381 846 b 942 486 781 846 942 685 b 860 325 942 365 903 325 b 779 486 819 325 779 365 b 779 657 779 532 779 597 b 733 701 779 686 764 701 b 675 701 715 701 696 701 b 629 672 644 701 629 690 b 561 701 629 690 594 701 b 353 486 438 701 353 610 b 475 278 353 394 399 303 b 642 324 550 256 628 279 b 647 325 643 332 644 332 b 860 174 667 269 726 174 b 1092 486 1032 174 1092 321 b 581 997 1092 768 863 997 b 69 486 299 997 69 768 b 575 -4 69 204 293 -18 b 743 33 633 -1 707 11 b 754 96 769 50 771 71 z m 561 414 b 501 486 526 414 497 439 b 575 561 506 538 540 561 b 633 486 611 561 639 538 b 561 414 629 439 597 414 z "},"|":{"ha":250,"x_min":0,"x_max":0,"o":"m 153 1069 b 194 1028 181 1069 194 1056 l 194 -194 b 153 -236 194 -222 181 -236 l 97 -236 b 56 -194 71 -236 56 -222 l 56 1028 b 97 1069 56 1056 71 1069 z "},"°":{"ha":400,"x_min":0,"x_max":0,"o":"m 200 706 b 386 892 303 706 386 790 b 200 1078 386 994 303 1078 b 14 892 99 1078 14 994 b 200 706 14 790 99 706 z m 200 826 b 135 892 165 826 135 857 b 200 957 135 926 165 957 b 265 892 235 957 265 926 b 200 826 265 857 235 826 z "},"^":{"ha":833,"x_min":0,"x_max":0,"o":"m 442 1040 b 383 1040 419 1060 403 1060 l 110 767 b 110 706 90 747 89 728 l 149 668 b 206 668 167 650 189 650 l 403 864 b 419 864 410 871 415 871 l 618 668 b 676 668 638 649 658 650 l 715 706 b 715 767 736 728 736 747 z "},"´":{"ha":413,"x_min":0,"x_max":0,"o":"m 207 878 b 156 860 192 865 176 860 l 64 860 b 40 911 26 860 17 883 l 151 1035 b 203 1057 167 1050 181 1057 l 349 1057 b 367 1006 389 1057 397 1031 z "},"ˆ":{"ha":833,"x_min":0,"x_max":0,"o":"m 442 1360 b 383 1360 419 1382 403 1379 l 188 1163 b 188 1101 168 1143 167 1124 l 226 1064 b 283 1064 244 1046 267 1046 l 403 1183 b 419 1183 410 1190 414 1189 l 543 1061 b 601 1061 563 1042 583 1043 l 640 1099 b 640 1160 661 1121 661 1140 z "},"¨":{"ha":833,"x_min":0,"x_max":0,"o":"m 271 810 b 350 889 314 810 350 846 b 271 968 350 932 314 968 b 192 889 228 968 192 932 b 271 810 192 846 228 810 z m 563 810 b 642 889 606 810 642 846 b 563 968 642 932 606 968 b 483 889 519 968 483 932 b 563 810 483 846 519 810 z "},"`":{"ha":413,"x_min":0,"x_max":0,"o":"m 210 1057 b 261 1035 232 1057 246 1050 l 372 911 b 349 860 396 883 386 860 l 257 860 b 206 878 236 860 221 865 l 46 1006 b 64 1057 15 1031 24 1057 z "},"˜":{"ha":639,"x_min":0,"x_max":0,"o":"m 128 1221 b 168 1208 142 1228 163 1219 b 593 1133 225 1104 486 1350 b 575 1093 603 1114 593 1100 l 511 1072 b 471 1085 497 1068 478 1072 b 46 1160 414 1189 153 943 b 64 1200 36 1179 43 1193 z "}}}
